# xmcd CD database file
#
# Track frame offsets:
#	150
#	25697
#	44212
#	70387
#	84832
#	120822
#
# Disc length: 1872 seconds
#
# Revision: 0
# Processed by: cddbd v1.5.2PL0 Copyright (c) Steve Scherf et al.
# Submitted via: CDex 1.70beta2
#
DISCID=43074e06
DTITLE=Teruo Nakamura - Route 80 (Japan)
DYEAR=1985
DGENRE=Jazz
TTITLE0=Route 80
TTITLE1=Snap Krackle
TTITLE2=A Day In The Life Of A Frog
TTITLE3=Midnight Song
TTITLE4=Gemini Rising
TTITLE5=Thinking Of You
EXTD=YEAR: 1985
EXTT0=
EXTT1=
EXTT2=
EXTT3=
EXTT4=
EXTT5=
PLAYORDER=
